<svg width="102" height="25" viewBox="0 0 102 25" fill="none" xmlns="http://www.w3.org/2000/svg">
<path d="M12.5569 10.1819L9.73416 16.4676H15.4211L12.5569 10.1819ZM17.5173 21.6851H7.6794L6.22654 24.6842H0V23.7804L11.2078 0.445312H13.9475L25.1967 23.7804V24.6842H18.9702L17.5173 21.6851Z" fill="#B8B8B8"/>
<path d="M37.0808 0.149414C42.1036 0.190497 47.3339 2.65547 48.5377 8.61248H42.2696C41.2319 6.55834 39.5922 5.73668 37.0808 5.73668C33.0543 5.73668 30.8958 8.73572 30.8958 12.3921C30.8958 16.336 33.3241 18.9653 37.0808 18.9653C39.6545 18.9653 41.2734 18.308 42.4149 16.0485H37.1223V10.7488H48.9113C49.0565 13.1316 49.0565 15.4322 48.2056 17.7329C46.4206 22.7039 41.6885 24.6348 37.1016 24.6348C30.7713 24.6348 24.3579 20.5676 24.3164 12.3921C24.3372 4.25769 30.7505 0.190497 37.0808 0.149414Z" fill="#B8B8B8"/>
<path d="M63.1582 0.230469C68.181 0.271552 73.4113 2.73651 74.6151 8.69352H68.347C67.3092 6.63938 65.6696 5.81772 63.1582 5.81772C59.1317 5.81772 56.9732 8.81677 56.9732 12.4731C56.9732 16.4171 59.4015 19.0464 63.1582 19.0464C65.7319 19.0464 67.3508 18.3891 68.4923 16.1295H63.179V10.8298H74.9679C75.1132 13.2126 75.1132 15.5133 74.2622 17.8139C72.4773 22.7849 67.7451 24.7158 63.1582 24.7158C56.8279 24.7158 50.4146 20.6486 50.373 12.4731C50.4146 4.29766 56.8279 0.230469 63.1582 0.230469Z" fill="#B8B8B8"/>
<path d="M95.4797 12.3865C95.4797 3.80016 82.9851 3.80016 82.9851 12.3865C82.9851 21.0549 95.4797 21.0549 95.4797 12.3865ZM76.4473 12.3865C76.4473 -4.12882 101.997 -4.12882 101.997 12.3865C101.997 28.9428 76.4473 28.9428 76.4473 12.3865Z" fill="#B8B8B8"/>
</svg>
