<svg width="14" height="18" viewBox="0 0 14 18" fill="none" xmlns="http://www.w3.org/2000/svg">
<path d="M11.8772 10.0364C11.4194 10.6629 10.9134 11.2412 10.0459 12.1568L6.69666 7.8437C7.73277 6.97627 7.58819 7.16903 7.99782 6.8076C9.27488 5.6992 9.49174 4.639 9.49174 3.89204C9.49174 2.27764 8.33516 0.663241 6.09427 0.663241C3.7811 0.663241 2.60042 2.37402 2.60042 4.06071C2.60042 5.14501 3.10643 6.10883 4.19073 7.50637C3.85339 7.72323 2.33537 8.66295 1.49203 9.50629C0.961928 10.0364 0.0462979 11.0966 0.0462979 12.8315C0.0462979 15.3856 2.07032 17.2891 4.69673 17.2891C6.52799 17.2891 8.47973 16.1567 9.87727 14.7591L11.6121 17H13.8289L11.1302 13.5062C12.1182 12.4941 12.7446 11.7231 13.1784 11.1207L11.8772 10.0364ZM8.79297 13.4339C8.19058 14.0122 6.38342 15.6507 4.67264 15.6507C3.01005 15.6507 1.82937 14.3977 1.82937 12.8074C1.82937 11.5544 2.50404 10.9038 2.96186 10.4942C3.41967 10.0846 4.04615 9.55449 5.22683 8.83162L8.79297 13.4339ZM4.93769 5.55463C4.62445 5.12091 4.28711 4.6631 4.28711 3.96433C4.28711 2.95232 5.08226 2.20535 6.07018 2.20535C6.91352 2.20535 7.80505 2.73546 7.80505 3.86794C7.80505 4.42214 7.63639 5.00043 6.72076 5.7233L5.66055 6.54255L4.93769 5.55463Z" fill="#2F2F2F"/>
</svg>
