<?xml version="1.0" encoding="UTF-8"?> <svg xmlns="http://www.w3.org/2000/svg" width="48" height="48" viewBox="0 0 48 48" fill="none"><rect width="48" height="48" rx="12" fill="#24B861"></rect><path d="M36.912 24.8615C36.912 25.5403 36.5625 25.6511 35.6959 25.6511C34.7733 25.6511 34.6056 25.4987 34.5077 24.806C34.326 23.0466 33.1239 21.5504 31.1111 21.3841C30.4681 21.3287 30.3143 21.0932 30.3143 20.3035C30.3143 19.5693 30.4261 19.2229 30.9992 19.2229C34.4938 19.2368 36.912 22.0214 36.912 24.8615ZM42 24.8615C42 19.5831 38.3937 14 30.0627 14H13.5127C13.1772 14 12.9675 14.1662 12.9675 14.471C12.9675 14.6373 13.0933 14.7897 13.2051 14.8728C13.8062 15.3438 14.7008 15.8703 15.875 16.4521C17.0212 17.0202 17.9158 17.3942 18.8104 17.7544C19.1878 17.9068 19.3275 18.073 19.3275 18.2809C19.3275 18.5718 19.1179 18.7519 18.7125 18.7519H5.5731C5.18171 18.7519 5 19.0013 5 19.2506C5 19.4584 5.06989 19.6385 5.2516 19.8186C6.31394 20.927 8.01927 22.2569 10.4934 23.7947C12.66 25.1385 15.3438 26.5932 17.4824 27.6045C17.8459 27.7708 17.9577 27.9647 17.9577 28.1725C17.9437 28.4081 17.762 28.602 17.3427 28.602H11.3181C10.9826 28.602 10.7869 28.7821 10.7869 29.0592C10.7869 29.2116 10.9127 29.4055 11.0805 29.5579C12.4503 30.7909 14.6449 32.1348 17.5663 33.3678C21.4662 35.0164 25.422 36 29.867 36C38.2958 36 42 29.7519 42 24.8615ZM30.9992 32.6612C26.694 32.6612 23.0876 29.1839 23.0876 24.8476C23.0876 20.5806 26.68 17.1448 30.9992 17.1448C35.4163 17.1448 38.8829 20.5668 38.8829 24.8476C38.8689 29.1839 35.4163 32.6612 30.9992 32.6612Z" fill="white"></path></svg> 