<?xml version="1.0" encoding="UTF-8"?> <svg xmlns="http://www.w3.org/2000/svg" width="48" height="48" viewBox="0 0 48 48" fill="none"><path d="M12.9209 9.38488L10.2965 15.2638H15.5838L12.9209 9.38488ZM17.5327 20.1437H8.38621L7.03546 22.9486H1.24655V22.1033L11.6666 0.27832H14.2137L24.6723 22.1033V22.9486H18.8834L17.5327 20.1437Z" fill="#24B861"></path><path d="M35.7186 0C40.3883 0.0384243 45.251 2.34388 46.3702 7.9154H40.5427C39.5778 5.99419 38.0534 5.2257 35.7186 5.2257C31.9751 5.2257 29.9682 8.03067 29.9682 11.4504C29.9682 15.1392 32.2259 17.5983 35.7186 17.5983C38.1113 17.5983 39.6164 16.9835 40.6777 14.8702H35.7571V9.91346H46.7175C46.8526 12.1421 46.8526 14.2938 46.0614 16.4456C44.4019 21.0949 40.0023 22.9009 35.7379 22.9009C29.8525 22.9009 23.8899 19.0969 23.8513 11.4504C23.8706 3.84242 29.8332 0.0384243 35.7186 0Z" fill="#24B861"></path><path d="M11.8866 25.0166C16.5563 25.055 21.419 27.3605 22.5382 32.932H16.7107C15.7458 31.0108 14.2214 30.2423 11.8866 30.2423C8.14307 30.2423 6.13624 33.0473 6.13624 36.467C6.13624 40.1558 8.39392 42.6149 11.8866 42.6149C14.2793 42.6149 15.7844 42.0001 16.8457 39.8868H11.9059V34.9301H22.8662C23.0013 37.1587 23.0013 39.3104 22.2101 41.4622C20.5506 46.1115 16.1511 47.9175 11.8866 47.9175C6.00117 47.9175 0.0385927 44.1135 0 36.467C0.0385927 28.8206 6.00117 25.0166 11.8866 25.0166Z" fill="#24B861"></path><path d="M41.9409 36.3867C41.9409 28.356 30.3245 28.356 30.3245 36.3867C30.3245 44.4942 41.9409 44.4942 41.9409 36.3867ZM24.2461 36.3867C24.2461 20.9401 47.9999 20.9401 47.9999 36.3867C47.9999 51.8717 24.2461 51.8717 24.2461 36.3867Z" fill="#24B861"></path></svg> 