<svg width="632" height="394" viewBox="0 0 632 394" fill="none" xmlns="http://www.w3.org/2000/svg">
<path d="M1.20308 100.077L1.89558 185.333C1.93667 190.392 9.73043 195.054 22.9915 198.807C25.1476 199.455 27.3499 197.773 27.331 195.444L26.7163 119.771C26.6925 116.843 24.7815 114.262 22.0378 113.486C18.1184 112.386 14.7192 111.149 11.8414 109.908C5.03924 106.968 1.23227 103.671 1.20308 100.077Z" fill="#2A9B57" stroke="black" stroke-width="0.975962" stroke-miterlimit="10" stroke-linecap="round" stroke-linejoin="round"/>
<path d="M12.0112 110.013C30.4023 101.827 70.8153 97.6464 117.921 97.1309L117.796 81.7234C117.768 78.2699 114.947 75.5034 111.483 75.5979C49.7242 76.963 1.10143 87.6525 1.20339 100.204" fill="#38C871"/>
<path d="M12.0112 110.013C30.4023 101.827 70.8153 97.6464 117.921 97.1309L117.796 81.7234C117.768 78.2699 114.947 75.5034 111.483 75.5979C49.7242 76.963 1.10144 87.6525 1.20339 100.204" stroke="black" stroke-width="0.975962" stroke-miterlimit="10" stroke-linecap="round" stroke-linejoin="round"/>
<path d="M92.4863 86.9531L82.4636 87.0345" stroke="black" stroke-width="0.975962" stroke-miterlimit="10" stroke-linecap="round" stroke-linejoin="round"/>
<path d="M11.8928 109.674C14.8379 110.915 18.3167 112.15 22.328 113.249C25.136 114.025 27.0914 116.604 27.1152 119.531L27.5254 170.027C47.6283 164.807 77.8835 161.168 112.098 160.424C115.566 160.33 118.411 157.512 118.383 153.986L117.918 96.7705C70.7612 97.3531 30.3706 101.474 11.8928 109.674Z" fill="white" stroke="white" stroke-width="0.975962" stroke-miterlimit="10" stroke-linecap="round" stroke-linejoin="round"/>
<path d="M1.37886 121.891C1.42396 127.443 10.94 132.522 26.8502 136.425" stroke="black" stroke-width="0.975962" stroke-miterlimit="10" stroke-linecap="round" stroke-linejoin="round"/>
<path d="M102.836 90.997C100.068 91.0195 97.8061 88.7941 97.7836 86.0264C97.7611 83.2587 99.9866 80.9968 102.754 80.9743C105.522 80.9518 107.784 83.1773 107.806 85.945C107.829 88.7126 105.603 90.9745 102.836 90.997Z" stroke="black" stroke-width="0.975962" stroke-miterlimit="10" stroke-linecap="round" stroke-linejoin="round"/>
<path d="M87.2234 92.3029C84.2929 92.3267 81.898 89.9703 81.8742 87.0398C81.8504 84.1093 84.2067 81.7144 87.1372 81.6906C90.0677 81.6668 92.4627 84.0231 92.4865 86.9536C92.5103 89.8841 90.1539 92.279 87.2234 92.3029Z" stroke="black" stroke-width="0.975962" stroke-miterlimit="10" stroke-linecap="round" stroke-linejoin="round"/>
<path d="M71.0095 92.4345C68.2418 92.457 65.9799 90.2316 65.9574 87.4639C65.935 84.6962 68.1604 82.4343 70.9281 82.4118C73.6958 82.3893 75.9577 84.6148 75.9802 87.3825C76.0026 90.1501 73.7772 92.412 71.0095 92.4345Z" stroke="black" stroke-width="0.975962" stroke-miterlimit="10" stroke-linecap="round" stroke-linejoin="round"/>
<path d="M90.2405 141.471L90.3153 150.684C94.6532 150.448 99.0577 150.212 103.596 150.042C106.133 149.955 108.118 147.802 108.031 145.266C107.943 142.729 105.791 140.744 103.254 140.831C98.8494 141 94.5116 141.236 90.2405 141.471Z" fill="#38C871"/>
<path d="M36.7183 152.588C37.1368 154.788 39.0858 156.374 41.2889 156.356C41.556 156.354 41.823 156.352 42.0895 156.283C56.0224 153.7 72.4976 151.763 90.3151 150.684L90.2402 141.471C71.8219 142.555 54.8132 144.563 40.3473 147.284C37.8804 147.705 36.2977 150.121 36.7183 152.588Z" fill="#38C871"/>
<path d="M90.2405 141.471L90.3153 150.684C94.6532 150.448 99.0577 150.212 103.596 150.042C106.133 149.955 108.118 147.802 108.031 145.266C107.943 142.729 105.791 140.744 103.254 140.831C98.8494 141 94.5116 141.236 90.2405 141.471Z" fill="#38C871"/>
<path d="M36.7183 152.588C37.1368 154.788 39.0858 156.374 41.2889 156.356C41.556 156.354 41.823 156.352 42.0895 156.283C56.0224 153.7 72.4976 151.763 90.3151 150.684L90.2402 141.471C71.8219 142.555 54.8132 144.563 40.3473 147.284C37.8804 147.705 36.2977 150.121 36.7183 152.588Z" fill="white"/>
<path d="M90.2405 141.471L90.3153 150.684C94.6532 150.448 99.0577 150.212 103.596 150.042C106.133 149.955 108.118 147.802 108.031 145.266C107.943 142.729 105.791 140.744 103.254 140.831C98.8494 141 94.5116 141.236 90.2405 141.471Z" stroke="#38C871" stroke-width="0.975962" stroke-miterlimit="10" stroke-linecap="round" stroke-linejoin="round"/>
<path d="M36.7183 152.588C37.1368 154.788 39.0858 156.374 41.2889 156.356C41.556 156.354 41.823 156.352 42.0895 156.283C56.0224 153.7 72.4976 151.763 90.3151 150.684L90.2402 141.471C71.8219 142.555 54.8132 144.563 40.3473 147.284C37.8804 147.705 36.2977 150.121 36.7183 152.588Z" stroke="#38C871" stroke-width="0.975962" stroke-miterlimit="10" stroke-linecap="round" stroke-linejoin="round"/>
<path d="M56.9491 128.187L57.0245 137.467C71.0295 135.551 86.7753 134.221 103.462 133.618C105.998 133.531 107.983 131.378 107.896 128.842C107.809 126.305 105.656 124.32 103.12 124.407C86.6342 125.075 70.9547 126.338 56.9491 128.187Z" fill="#38C871"/>
<path d="M36.5845 136.23C37.003 138.43 38.952 140.017 41.1551 139.999C41.4222 139.997 41.6892 139.994 41.9557 139.925C46.6887 139.019 51.7565 138.243 57.0251 137.533L56.9492 128.187C51.0803 128.969 45.4789 129.815 40.2797 130.859C37.7466 131.347 36.1633 133.697 36.5845 136.23Z" fill="#38C871"/>
<path d="M56.9491 128.187L57.0245 137.467C71.0295 135.551 86.7753 134.221 103.462 133.618C105.998 133.531 107.983 131.378 107.896 128.842C107.809 126.305 105.656 124.32 103.12 124.407C86.6342 125.075 70.9547 126.338 56.9491 128.187Z" fill="#38C871"/>
<path d="M36.5845 136.23C37.003 138.43 38.952 140.017 41.1551 139.999C41.4222 139.997 41.6892 139.994 41.9557 139.925C46.6887 139.019 51.7565 138.243 57.0251 137.533L56.9492 128.187C51.0803 128.969 45.4789 129.815 40.2797 130.859C37.7466 131.347 36.1633 133.697 36.5845 136.23Z" fill="white"/>
<path d="M56.9491 128.187L57.0245 137.467C71.0295 135.551 86.7753 134.221 103.462 133.618C105.998 133.531 107.983 131.378 107.896 128.842C107.809 126.305 105.656 124.32 103.12 124.407C86.6342 125.075 70.9547 126.338 56.9491 128.187Z" stroke="#38C871" stroke-width="0.975962" stroke-miterlimit="10" stroke-linecap="round" stroke-linejoin="round"/>
<path d="M36.5845 136.23C37.003 138.43 38.952 140.017 41.1551 139.999C41.4222 139.997 41.6892 139.994 41.9557 139.925C46.6887 139.019 51.7565 138.243 57.0251 137.533L56.9492 128.187C51.0803 128.969 45.4789 129.815 40.2797 130.859C37.7466 131.347 36.1633 133.697 36.5845 136.23Z" stroke="#38C871" stroke-width="0.975962" stroke-miterlimit="10" stroke-linecap="round" stroke-linejoin="round"/>
<path d="M74.2262 109.887L74.301 119.1C83.5074 118.224 93.2501 117.611 103.329 117.262C105.865 117.174 107.851 115.022 107.763 112.485C107.676 109.949 105.523 107.964 102.987 108.051C93.0423 108.465 83.4331 109.078 74.2262 109.887Z" fill="#38C871"/>
<path d="M36.4515 119.808C36.8699 122.008 38.819 123.594 41.0221 123.576C41.2891 123.574 41.5562 123.572 41.8227 123.503C51.5556 121.688 62.4929 120.197 74.3014 119.1L74.2266 109.887C61.8173 110.989 50.2796 112.552 40.0805 114.504C37.6136 114.924 36.0308 117.341 36.4515 119.808Z" fill="#38C871"/>
<path d="M74.2262 109.887L74.301 119.1C83.5074 118.224 93.2501 117.611 103.329 117.262C105.865 117.174 107.851 115.022 107.763 112.485C107.676 109.949 105.523 107.964 102.987 108.051C93.0423 108.465 83.4331 109.078 74.2262 109.887Z" fill="#38C871"/>
<path d="M36.4515 119.808C36.8699 122.008 38.819 123.594 41.0221 123.576C41.2891 123.574 41.5562 123.572 41.8227 123.503C51.5556 121.688 62.4929 120.197 74.3014 119.1L74.2266 109.887C61.8172 110.989 50.2796 112.552 40.0804 114.504C37.6136 114.924 36.0308 117.341 36.4515 119.808Z" fill="white"/>
<path d="M74.2262 109.887L74.301 119.1C83.5074 118.224 93.2501 117.611 103.329 117.262C105.865 117.174 107.851 115.022 107.763 112.485C107.676 109.949 105.523 107.964 102.987 108.051C93.0423 108.465 83.4331 109.078 74.2262 109.887Z" stroke="#38C871" stroke-width="0.975962" stroke-miterlimit="10" stroke-linecap="round" stroke-linejoin="round"/>
<path d="M36.4515 119.808C36.8699 122.008 38.819 123.594 41.0221 123.576C41.2891 123.574 41.5562 123.572 41.8227 123.503C51.5556 121.688 62.4929 120.197 74.3014 119.1L74.2266 109.887C61.8173 110.989 50.2796 112.552 40.0805 114.504C37.6136 114.924 36.0308 117.341 36.4515 119.808Z" stroke="#38C871" stroke-width="0.975962" stroke-miterlimit="10" stroke-linecap="round" stroke-linejoin="round"/>
<path d="M141.372 118.766L87.0018 116.195C87.0018 116.195 53.4391 276.904 195.285 308.442L230.323 311.924L245.114 255.914L228.22 226.826C123.744 207.94 141.372 118.766 141.372 118.766Z" fill="#2A9B57" stroke="black" stroke-width="2" stroke-miterlimit="10" stroke-linecap="round" stroke-linejoin="round"/>
<path d="M156.186 118.041L93.8009 119.301C95.474 116.726 95.7161 59.6299 95.7161 59.6299" fill="#EEEEEE"/>
<path d="M156.186 118.041L93.8009 119.301C95.474 116.726 95.7161 59.6299 95.7161 59.6299" stroke="black" stroke-width="2.93959" stroke-miterlimit="10" stroke-linecap="round" stroke-linejoin="round"/>
<path d="M231.013 309.808L230.465 311.922L195.428 308.44C53.5816 276.902 87.1444 116.193 87.1444 116.193L107.481 117.233C104.775 131.717 81.2619 278.335 215.897 308.425L231.013 309.808Z" fill="#38C871" stroke="black" stroke-width="2.93959" stroke-miterlimit="10" stroke-linecap="round" stroke-linejoin="round"/>
<path d="M316.635 128.339L328.465 176.6C328.465 176.6 309.289 214.116 274.326 202.499C259.464 197.648 265.733 169.878 265.733 169.878L268.904 143.189L316.635 128.339Z" fill="#EEEEEE"/>
<path d="M260.395 69.1392C239.372 105.163 240.251 143.872 254.023 153.552C265.098 161.446 283.514 151.957 288.292 149.357C296.839 141.454 313.399 124.86 321.946 116.957L299.204 67.6188L260.395 69.1392Z" fill="#EEEEEE"/>
<path d="M260.396 69.1394C239.373 105.164 240.252 143.872 254.024 153.552C255.728 154.744 257.711 155.631 259.691 156.067C241.221 141.454 261.188 79.6781 268.159 68.9257L260.396 69.1394Z" fill="white"/>
<path d="M328.464 176.599L314.656 127.751L334.154 60.2545L260.537 69.138C239.513 105.162 240.392 143.871 254.164 153.551C265.239 161.445 285.497 152.845 293.774 146.45" stroke="black" stroke-width="2.93959" stroke-miterlimit="10" stroke-linecap="round" stroke-linejoin="round"/>
<path d="M349.041 85.5924C352.408 83.0041 368.012 57.569 361.736 49.6358C355.728 57.3675 349.535 59.5268 346.975 57.2879C345.269 55.7953 348.039 49.1444 355.621 44.1116C350.511 40.6882 288.444 28.9902 260.395 69.1389C260.562 72.3011 261.16 76.3637 264.006 79.2028C270.267 85.3284 280.097 78.9215 286.623 82.9359C294.71 87.8415 286.969 108.091 294.055 111.498C295.589 109.226 297.691 107.25 299.655 105.728C302.319 103.597 306.116 101.759 309.514 102.936C311.355 103.675 313.06 105.017 313.923 106.968C314.928 109.069 314.945 111.178 314.681 113.44C314.286 116.908 312.477 120.236 310.666 123.113C309.411 125.082 308.155 126.9 306.617 128.72C308.91 132.92 317.346 146.108 319.756 147.293C325.803 144.533 336.741 135.556 347.909 120.099C360.89 101.917 364.262 82.6065 361.383 75.7002C361.113 77.2089 355.82 85.9893 349.041 85.5924Z" fill="black" stroke="black" stroke-width="2.93959" stroke-miterlimit="10" stroke-linecap="round" stroke-linejoin="round"/>
<path d="M266.89 86.5613L201.562 38.4336C201.562 38.4336 228.492 51.7729 235.455 74.765C239.229 87.5392 224.779 115.978 225.064 116.277C225.773 116.723 205.958 127.73 205.958 127.73L263.393 125.306C263.534 125.304 263.675 125.303 263.817 125.302L263.958 125.301C269.318 124.805 274.347 118.287 275.684 109.087C277.149 98.2283 273.427 91.9314 266.89 86.5613Z" stroke="black" stroke-width="2.93959" stroke-miterlimit="10" stroke-linecap="round" stroke-linejoin="round"/>
<path d="M158.402 77.8011C156.33 100.867 164.815 120.08 177.686 123.139C175.017 124.667 172.2 125.443 169.376 125.466C154.695 125.435 144.776 103.521 147.239 76.536C149.702 49.5505 163.501 27.7455 178.183 27.9276C182.418 27.8932 186.386 29.8193 189.661 33.2576C189.379 33.2599 189.097 33.2622 188.814 33.2645C174.269 32.6294 160.598 52.7762 158.402 77.8011Z" fill="white" stroke="black" stroke-width="2.93959" stroke-miterlimit="10" stroke-linecap="round" stroke-linejoin="round"/>
<path d="M200.319 76.7076C198.378 98.4162 188.928 116.872 177.686 123.139C164.815 120.08 156.33 100.867 158.401 77.8013C160.598 52.7764 174.128 32.7813 188.811 32.9633C189.094 32.961 189.376 32.9587 189.658 32.9564C197.629 41.0265 201.998 57.562 200.319 76.7076Z" fill="black" stroke="black" stroke-width="2.93959" stroke-miterlimit="10" stroke-linecap="round" stroke-linejoin="round"/>
<path d="M201.56 38.2828C208.547 46.8128 211.489 61.4014 209.939 79.1901C207.998 100.899 198.548 119.354 187.306 125.622" stroke="black" stroke-width="2.93959" stroke-miterlimit="10" stroke-linecap="round" stroke-linejoin="round"/>
<path d="M126.722 70.5267C124.517 94.4971 113.385 114.322 100.713 118.492C90.9185 111.793 85.1242 93.6119 87.069 72.3552C89.2742 48.3847 100.406 28.5598 113.078 24.3894C122.873 31.0889 128.667 49.2699 126.722 70.5267Z" fill="black" stroke="black" stroke-width="2.93959" stroke-miterlimit="10" stroke-linecap="round" stroke-linejoin="round"/>
<path d="M130.923 31.3246C137.909 39.8546 141.707 55.4909 140.157 73.2796C138.217 95.1389 128.768 113.594 117.383 119.713" stroke="black" stroke-width="2.93959" stroke-miterlimit="10" stroke-linecap="round" stroke-linejoin="round"/>
<path d="M110.523 22.9033L157.831 42.4042" stroke="black" stroke-width="2.93959" stroke-miterlimit="10" stroke-linecap="round" stroke-linejoin="round"/>
<path d="M169.377 125.316L242.107 128.944" stroke="black" stroke-width="2.93959" stroke-miterlimit="10" stroke-linecap="round" stroke-linejoin="round"/>
<path d="M185.68 29.8262L273.293 75.6639" stroke="black" stroke-width="2.93959" stroke-miterlimit="10" stroke-linecap="round" stroke-linejoin="round"/>
<path d="M239.027 45.0594L238.747 45.363C232.637 40.4413 226.574 41.3944 226.574 41.3944L224.186 42.7697C219.936 40.9964 216.552 41.4758 216.552 41.4758L210.314 38.2123C222.697 68.0901 210.233 97.7178 205.816 127.431C204.876 133.313 204.076 139.195 203.416 144.774C203.416 144.774 210.029 159.484 210.748 161.135C211.467 162.786 244.07 161.919 245.896 160.85C247.723 159.78 257.593 141.02 257.593 141.02C257.769 127.913 259.095 117.357 259.892 111.174C261.1 103.481 261.601 95.6435 261.395 87.6609C260.483 44.8852 239.027 45.0594 239.027 45.0594Z" fill="#EEEEEE"/>
<path d="M227.211 68.2038C227.159 61.8771 226.401 55.4055 224.656 49.0926C223.947 48.797 223.096 48.2014 222.807 47.4505C222.664 47.1504 222.52 46.8503 222.235 46.5513C221.381 45.6544 220.527 44.7574 219.532 44.0123C218.253 42.9681 216.974 41.924 215.695 40.8799L210.759 41.3719C214.503 50.5309 215.682 56.5471 215.756 65.7358C215.924 86.3728 209.032 106.917 205.952 127.429C205.012 133.312 204.213 139.194 203.552 144.773C203.552 144.773 210.306 159.481 210.884 161.134C211.172 161.734 215.691 161.999 221.479 161.952C219.609 157.749 214.865 147.242 214.865 147.242C215.526 141.663 216.325 135.781 217.265 129.898C220.346 109.386 227.378 88.8408 227.211 68.2038Z" fill="white"/>
<path d="M325.553 166.379C325.553 166.379 297.962 193.268 280.003 189.497C274.488 188.336 266.812 181.77 265.329 173.045L238.656 173.864C227.004 181.943 220.343 196.007 216.816 213.661C208.132 256.816 201.183 389.789 201.183 389.789L452.805 389.919L412.544 222.466C400.852 180.973 325.553 166.379 325.553 166.379Z" fill="#2A9B57" stroke="black" stroke-width="2" stroke-miterlimit="10" stroke-linecap="round" stroke-linejoin="round"/>
<path d="M214.846 213.677C206.162 256.832 199.027 386.444 199.027 386.444L214.846 213.677Z" fill="black"/>
<path d="M214.846 213.677C206.162 256.832 199.027 386.444 199.027 386.444" stroke="#EEEEEE" stroke-width="2.93959" stroke-miterlimit="10" stroke-linecap="round" stroke-linejoin="round"/>
<path d="M173.408 48.6049C175.093 47.5367 176.921 46.618 178.897 46.6019C180.874 46.5859 182.999 47.6231 183.579 49.4261C184.013 50.7784 183.603 52.4389 182.766 53.6508C181.929 54.8628 180.808 55.9264 179.83 57.1395C177.732 59.5668 176.484 62.2886 175.661 65.3082C174.976 67.8747 175.287 71.337 173.47 73.6114C171.092 76.3424 169.109 75.4546 167.392 72.6063C162.811 64.81 165.968 53.7872 173.408 48.6049Z" fill="white"/>
<path d="M181.41 43.1167C179.85 42.2255 181.383 39.8028 182.93 39.037C184.476 38.2712 186.596 38.5552 188.156 39.4464C189.574 40.1881 190.713 41.3841 191.289 42.7352C191.866 44.237 191.597 45.8962 190.477 47.1105C189.357 48.1741 187.383 48.4914 186.104 47.4473C185.251 46.701 184.96 45.6488 184.388 44.7496C183.958 43.9999 182.12 43.5629 181.41 43.1167Z" fill="white"/>
<path d="M106.414 38.1526C104.859 37.8639 105.544 35.2974 106.664 34.2338C107.785 33.1702 109.618 32.854 111.172 32.9921C112.586 33.2819 113.861 33.8741 114.716 34.9216C115.572 35.9692 115.868 37.6239 115.172 38.8347C114.477 40.1961 112.789 40.9631 111.514 40.3708C110.665 40.0764 110.093 39.1772 109.382 38.5804C108.671 37.9836 107.262 38.2964 106.414 38.1526Z" fill="white"/>
<path d="M101.664 44.2172C103.349 43.149 105.177 42.2303 107.153 42.2142C109.129 42.1982 111.255 43.2354 111.835 45.0384C112.269 46.3907 111.859 48.0511 111.022 49.2631C110.185 50.475 109.064 51.5387 108.086 52.7518C105.988 55.1791 104.74 57.9009 103.917 60.9205C103.232 63.487 103.543 66.9493 101.726 69.2237C99.3482 71.9547 97.3646 71.0669 95.6475 68.2186C91.0668 60.4222 94.2242 49.3995 101.664 44.2172Z" fill="white"/>
<path d="M263.569 182.249L268.723 156.447" stroke="black" stroke-width="2.93959" stroke-miterlimit="10" stroke-linecap="round" stroke-linejoin="round"/>
<path d="M87.0668 72.2049C85.122 93.4617 90.9163 111.643 100.711 118.342C99.1621 118.807 97.4707 119.122 95.7768 119.135C81.0952 119.104 71.1767 97.1904 73.6397 70.205C76.1027 43.2195 89.901 21.4145 104.584 21.5965C107.689 21.5713 110.521 22.6028 113.077 24.3898C100.404 28.4095 89.2719 48.2344 87.0668 72.2049Z" fill="white" stroke="black" stroke-width="2.93959" stroke-miterlimit="10" stroke-linecap="round" stroke-linejoin="round"/>
<path d="M216.69 41.474C216.69 41.474 238.962 37.527 241.286 80.2914" stroke="black" stroke-width="2.93959" stroke-miterlimit="10" stroke-linecap="round" stroke-linejoin="round"/>
<path d="M224.322 42.7681C224.322 42.7681 249.551 37.8932 251.733 80.6586" stroke="black" stroke-width="2.93959" stroke-miterlimit="10" stroke-linecap="round" stroke-linejoin="round"/>
<path d="M237.896 45.2188C237.896 45.2188 260.482 45.0353 261.817 87.8076C262.022 95.6395 261.521 103.477 260.314 111.32C257.099 132.588 249.667 208.272 298.731 252.765" stroke="black" stroke-width="2.93959" stroke-miterlimit="10" stroke-linecap="round" stroke-linejoin="round"/>
<path d="M257.868 141.018C257.425 173.41 263.74 220.962 298.726 252.766L285.844 335.273C236.721 335.672 185.154 295.869 203.692 144.922C213.895 149.811 225.485 151.524 236.622 149.626C244.092 148.21 251.409 145.288 257.868 141.018Z" fill="#2A9B57" stroke="black" stroke-width="2.93959" stroke-miterlimit="10" stroke-linecap="round" stroke-linejoin="round"/>
<path d="M203.694 144.772C204.354 139.193 205.154 133.311 206.094 127.429C210.511 97.7156 224.583 74.8539 210.613 40.7709C218.681 43.417 223.796 47.4429 226.265 56.0096C228.735 64.5763 229.93 72.7014 229.72 81.5912" stroke="black" stroke-width="2.93959" stroke-miterlimit="10" stroke-linecap="round" stroke-linejoin="round"/>
<path d="M237.188 45.0742C237.188 45.0742 260.478 44.8851 261.673 87.6586C261.878 95.4904 261.377 103.328 260.17 111.171C259.231 117.205 257.906 127.911 257.871 141.018" stroke="black" stroke-width="2.93959" stroke-miterlimit="10" stroke-linecap="round" stroke-linejoin="round"/>
<path d="M298.731 252.615C263.746 220.811 259.829 173.089 262.249 140.831" stroke="#EEEEEE" stroke-width="2.93959" stroke-miterlimit="10" stroke-linecap="round" stroke-linejoin="round"/>
<path d="M297.742 339.545C240.175 343.176 181.32 292.435 199.856 141.338" stroke="#EEEEEE" stroke-width="2.93959" stroke-miterlimit="10" stroke-linecap="round" stroke-linejoin="round"/>
<path d="M504.595 179.289C503.086 179.301 503.065 176.758 504.574 176.746C506.163 176.733 506.183 179.276 504.595 179.289Z" fill="#6EDCFF"/>
<path d="M355.526 93.9062L356.725 241.516C356.748 244.325 358.83 246.606 361.45 246.755C377.646 247.56 394.95 247.931 413.042 247.698C503.821 246.535 578.697 231.88 580.306 214.926L579.064 62.124C578.116 72.3476 550.733 81.6791 509.277 87.8048C481.772 91.8592 448.065 94.5167 411.801 94.8964C395.454 95.1143 379.738 94.8163 364.973 94.2552L355.526 93.9062Z" fill="white" stroke="white" stroke-width="1.09094" stroke-miterlimit="10" stroke-linecap="round" stroke-linejoin="round"/>
<path d="M580.297 213.937C580.295 213.614 580.292 213.209 580.289 212.885C579.276 203.259 552.322 195.14 511.371 190.615" stroke="#6EDCFF" stroke-width="1.09094" stroke-miterlimit="10" stroke-linecap="round" stroke-linejoin="round"/>
<path d="M509.877 6.93441L510.233 50.7423C550.893 44.6273 577.88 35.3057 578.732 25.0904C579.664 14.9596 554.794 6.31436 515.603 1.27332C512.558 0.872703 509.85 3.53185 509.877 6.93441Z" fill="#38C871" stroke="black" stroke-width="1.09094" stroke-miterlimit="10" stroke-linecap="round" stroke-linejoin="round"/>
<path d="M579.563 123.532L579.064 62.124" stroke="black" stroke-width="1.09094" stroke-miterlimit="10" stroke-linecap="round" stroke-linejoin="round"/>
<path d="M580.297 213.937L579.535 120.12" stroke="black" stroke-width="1.09094" stroke-miterlimit="10" stroke-linecap="round" stroke-linejoin="round"/>
<path d="M459.338 120.184L459.954 196.049L527.638 123.494L520.423 114.899C520.102 114.482 520.256 113.892 520.731 113.72L559.252 96.4356C559.807 96.2631 560.287 96.7633 560.133 97.3527L544.431 138.482C544.276 138.987 543.722 139.159 543.322 138.827L534.844 131.082L450.476 221.499L449.9 150.676L398.809 223.263C396.925 225.883 393.437 226.5 390.88 224.504C388.324 222.508 387.737 218.732 389.621 216.028L457.427 119.528C458.056 118.682 459.329 119.092 459.338 120.184Z" fill="#38C871"/>
<path d="M474.594 189.307L475.637 317.73C487.599 318.398 500.667 318.717 514.206 318.522C576.518 317.676 627.907 307.654 628.921 296.001L627.877 167.492C627.221 174.467 608.427 180.91 580.033 185.05C561.131 187.839 538.024 189.642 513.162 189.928C501.998 190.104 491.228 189.937 481.009 189.425L474.594 189.307Z" fill="white"/>
<path d="M586.375 125.9L586.64 158.534C611.708 154.346 627.863 148.366 628.447 141.919C629.106 135.132 612.538 129.418 586.375 125.9Z" fill="black"/>
<path d="M586.375 125.9L586.64 158.534C611.708 154.346 627.863 148.366 628.447 141.919C629.106 135.132 612.538 129.418 586.375 125.9Z" stroke="#6EDCFF" stroke-width="0.436376" stroke-miterlimit="10"/>
<path d="M586.375 125.9L586.64 158.534C611.708 154.346 627.863 148.366 628.447 141.919C629.106 135.132 612.538 129.418 586.375 125.9Z" stroke="black" stroke-width="1.09094" stroke-miterlimit="10" stroke-linecap="round" stroke-linejoin="round"/>
<path d="M474.594 189.307L475.637 317.73C487.599 318.398 500.667 318.717 514.206 318.522C576.518 317.676 627.907 307.654 628.921 296.001L627.877 167.492C627.221 174.467 608.427 180.91 580.033 185.05C561.131 187.839 538.024 189.642 513.162 189.928C501.998 190.104 491.228 189.937 481.009 189.425L474.594 189.307Z" stroke="#2A9B57" stroke-width="1.09094" stroke-miterlimit="10" stroke-linecap="round" stroke-linejoin="round"/>
<path d="M355.3 66.0476L355.521 93.1999L364.967 93.5448C379.733 94.1838 395.449 94.3935 411.795 94.1764C448.059 93.7132 481.766 91.1625 509.272 87.1442C550.728 81.0731 578.191 71.8268 579.061 61.7002L578.76 24.5977C577.81 34.7249 550.427 43.9706 508.971 50.0417C481.465 54.06 447.758 56.695 411.494 57.0739C395.147 57.291 379.431 56.997 364.666 56.4423C359.585 56.2306 355.255 60.5665 355.3 66.0476Z" fill="#38C871" stroke="black" stroke-width="1.09094" stroke-miterlimit="10" stroke-linecap="round" stroke-linejoin="round"/>
<path d="M387.427 85.8567C382.13 85.8997 377.799 81.3524 377.753 75.7C377.708 70.0476 381.964 65.4305 387.261 65.3875C392.558 65.3444 396.889 69.8918 396.935 75.5442C396.981 81.1966 392.724 85.8137 387.427 85.8567Z" stroke="white" stroke-width="1.09094" stroke-miterlimit="10" stroke-linecap="round" stroke-linejoin="round"/>
<path d="M396.934 75.5449L377.752 75.7007" stroke="white" stroke-width="1.09094" stroke-miterlimit="10" stroke-linecap="round" stroke-linejoin="round"/>
<path d="M417 85.6168C412.145 85.6562 408.171 81.106 408.125 75.4536C408.079 69.8012 411.978 65.187 416.834 65.1476C421.689 65.1081 425.662 69.6584 425.708 75.3108C425.754 80.9632 421.855 85.5773 417 85.6168Z" stroke="white" stroke-width="1.09094" stroke-miterlimit="10" stroke-linecap="round" stroke-linejoin="round"/>
<path d="M446.574 85.3762C441.277 85.4192 436.946 80.8719 436.9 75.2195C436.854 69.5671 441.111 64.95 446.407 64.907C451.704 64.864 456.035 69.4113 456.081 75.0637C456.127 80.7161 451.87 85.3332 446.574 85.3762Z" stroke="white" stroke-width="1.09094" stroke-miterlimit="10" stroke-linecap="round" stroke-linejoin="round"/>
<path d="M417.635 65.1406L417.801 85.6098" stroke="white" stroke-width="1.09094" stroke-miterlimit="10" stroke-linecap="round" stroke-linejoin="round"/>
<path d="M510.133 38.8013L510.23 50.7416C523.482 48.8222 535.374 46.6668 545.345 44.1976C535.257 42.056 523.413 40.2581 510.133 38.8013Z" fill="white" stroke="black" stroke-width="1.09094" stroke-miterlimit="10" stroke-linecap="round" stroke-linejoin="round"/>
<path d="M474.442 170.862L474.596 189.881L481.156 190.086C491.395 190.519 502.272 190.689 513.627 190.596C538.735 190.306 562.071 188.482 581.16 185.659C609.834 181.381 628.814 174.944 629.477 167.882L629.266 141.893C628.603 148.955 609.624 155.478 580.949 159.67C561.86 162.493 538.524 164.317 513.416 164.607C502.142 164.785 491.265 164.615 480.945 164.183C477.345 163.954 474.41 166.99 474.442 170.862Z" fill="#38C871" stroke="black" stroke-width="1.09094" stroke-miterlimit="10" stroke-linecap="round" stroke-linejoin="round"/>
<path d="M488.135 183.98C485.046 184.005 482.519 181.353 482.492 178.055C482.466 174.758 484.949 172.065 488.038 172.04C491.128 172.014 493.655 174.667 493.681 177.964C493.708 181.262 491.225 183.955 488.135 183.98Z" fill="white" stroke="white" stroke-width="1.09094" stroke-miterlimit="10" stroke-linecap="round" stroke-linejoin="round"/>
<path d="M507.512 183.529C504.565 183.553 502.156 180.966 502.129 177.752C502.103 174.538 504.471 171.913 507.417 171.889C510.363 171.865 512.773 174.451 512.799 177.666C512.825 180.88 510.458 183.505 507.512 183.529Z" fill="white" stroke="white" stroke-width="1.09094" stroke-miterlimit="10" stroke-linecap="round" stroke-linejoin="round"/>
<path d="M525.456 183.383C522.777 183.405 520.585 180.817 520.558 177.603C520.532 174.389 522.683 171.765 525.361 171.743C528.04 171.722 530.232 174.31 530.258 177.524C530.284 180.738 528.134 183.362 525.456 183.383Z" fill="white" stroke="white" stroke-width="1.09094" stroke-miterlimit="10" stroke-linecap="round" stroke-linejoin="round"/>
<path d="M594.088 141.008L586.084 126.272L579.654 125.237L579.85 159.353L589.51 157.853L594.088 141.008Z" fill="black" stroke="black" stroke-width="1.09094" stroke-miterlimit="10" stroke-linecap="round" stroke-linejoin="round"/>
<path d="M571.582 270.888L571.725 288.518C585.534 286.965 597.988 284.914 608.057 282.459C609.959 282.019 611.539 280.905 612.639 279.37C613.738 277.835 614.438 275.965 614.421 273.845C614.375 268.251 609.496 264.137 604.423 265.365C595.385 267.558 584.121 269.429 571.582 270.888Z" fill="#38C871" stroke="#38C871" stroke-width="1.09094" stroke-miterlimit="10" stroke-linecap="round" stroke-linejoin="round"/>
<path d="M501.46 282.986C501.42 287.818 505.107 291.857 509.634 291.82C511.064 291.809 512.493 291.797 513.923 291.785C514.797 291.778 515.75 291.77 516.624 291.763C536.083 291.521 554.899 290.35 571.645 288.519L571.502 270.889C554.916 272.804 535.941 274.06 516.402 274.303C514.099 274.322 511.875 274.34 509.572 274.359C505.202 274.309 501.58 278.238 501.46 282.986Z" fill="white" stroke="#38C871" stroke-width="1.09094" stroke-miterlimit="10" stroke-linecap="round" stroke-linejoin="round"/>
<path d="M540.054 242.409L540.197 259.954C566.637 258.553 590.522 255.561 607.805 251.352C609.708 250.913 611.287 249.798 612.387 248.263C613.486 246.729 614.186 244.858 614.169 242.739C614.123 237.145 609.245 233.031 604.171 234.259C588.078 238.204 565.224 241.102 540.054 242.409Z" fill="#38C871" stroke="#38C871" stroke-width="1.09094" stroke-miterlimit="10" stroke-linecap="round" stroke-linejoin="round"/>
<path d="M501.209 251.878C501.169 256.71 504.855 260.749 509.383 260.712C510.813 260.7 512.242 260.689 513.672 260.677C514.546 260.67 515.499 260.662 516.373 260.655C524.474 260.589 532.415 260.271 540.117 259.869L539.975 242.323C532.193 242.726 524.172 242.96 516.151 243.11C513.847 243.129 511.623 243.147 509.32 243.166C504.952 243.286 501.329 247.13 501.209 251.878Z" fill="white" stroke="#38C871" stroke-width="1.09094" stroke-miterlimit="10" stroke-linecap="round" stroke-linejoin="round"/>
<path d="M500.955 220.856C500.915 225.688 504.602 229.727 509.129 229.691C510.559 229.679 511.989 229.667 513.418 229.656C514.292 229.649 515.245 229.641 516.119 229.634C528.509 229.448 540.658 228.926 552.09 228.07L551.947 210.524C540.436 211.381 528.287 211.903 515.897 212.089C513.593 212.107 511.369 212.126 509.066 212.144C504.697 212.18 501.075 216.024 500.955 220.856Z" fill="#38C871" stroke="#38C871" stroke-width="1.09094" stroke-miterlimit="10" stroke-linecap="round" stroke-linejoin="round"/>
<path d="M552.027 210.608L552.17 228.153C573.683 226.538 592.963 223.838 607.551 220.329C609.454 219.89 611.033 218.775 612.133 217.24C613.232 215.705 613.932 213.835 613.915 211.716C613.869 206.121 608.991 202.007 603.917 203.235C590.519 206.481 572.349 209.002 552.027 210.608Z" fill="white" stroke="#38C871" stroke-width="1.09094" stroke-miterlimit="10" stroke-linecap="round" stroke-linejoin="round"/>
</svg>
