<svg width="176" height="24" viewBox="0 0 176 24" fill="none" xmlns="http://www.w3.org/2000/svg">
<path d="M120.909 9.22044C120.909 6.32459 119.145 4.21582 115.766 4.21582H104.848V19.2297H108.433V14.1062H112.68L116.838 19.2297H120.879V18.903L116.838 14.0171C119.381 13.4974 120.909 11.6262 120.909 9.22044ZM115.369 11.0767H108.448V7.33442H115.369C116.647 7.33442 117.47 8.01755 117.47 9.20559C117.47 10.4233 116.677 11.0767 115.369 11.0767Z" fill="#2F2F2F"/>
<path d="M175.114 4.21582H171.749V9.9184H162.712V4.21582H159.082V19.2445H162.712V13.3192H171.749V19.2445H175.114V4.21582Z" fill="#2F2F2F"/>
<path d="M95.25 4.21582L91.2531 16.8536H91.0326L87.021 4.21582H80.6289V19.2445H84.0527V6.90376H84.2585L88.2554 19.2445H93.7658L97.7774 6.90376H97.9832V19.2445H101.51V4.21582H95.25Z" fill="#2F2F2F"/>
<path d="M56.1917 10.3647C54.928 10.231 52.5621 10.0083 51.2984 9.87463C50.0494 9.74098 49.3293 9.36972 49.3293 8.53809C49.3293 7.73616 50.0935 7.06789 53.1793 7.06789C55.9125 7.06789 58.4253 7.66191 60.6148 8.73114V5.37493C58.4253 4.32055 56.0007 3.80078 52.9883 3.80078C48.7563 3.80078 45.832 5.58284 45.832 8.61234C45.832 11.1666 47.5513 12.5626 50.9898 12.9487C52.2389 13.0823 54.3549 13.2754 55.839 13.3942C57.4554 13.5279 57.9257 14.0328 57.9257 14.7753C57.9257 15.8 56.7942 16.4237 53.9287 16.4237C51.0192 16.4237 48.0656 15.4584 45.9643 14.107V17.5672C47.6542 18.7107 50.5637 19.676 53.8112 19.676C58.4253 19.676 61.3936 17.879 61.3936 14.6565C61.423 12.221 59.8359 10.7508 56.1917 10.3647Z" fill="#2F2F2F"/>
<path d="M63.7715 4.21582V19.2445H77.6285V16.1705H67.1953V13.1261H77.4521V10.0818H67.1953V7.28987H77.6285V4.21582H63.7715Z" fill="#2F2F2F"/>
<path d="M151.664 10.3647C150.401 10.231 148.035 10.0083 146.771 9.87463C145.522 9.74098 144.802 9.36972 144.802 8.53809C144.802 7.73616 145.566 7.06789 148.652 7.06789C151.385 7.06789 153.898 7.66191 156.087 8.73114V5.37493C153.898 4.32055 151.473 3.80078 148.461 3.80078C144.229 3.80078 141.305 5.58284 141.305 8.61234C141.305 11.1666 143.024 12.5626 146.462 12.9487C147.712 13.0823 149.828 13.2754 151.312 13.3942C152.928 13.5279 153.398 14.0328 153.398 14.7753C153.398 15.8 152.267 16.4237 149.401 16.4237C146.492 16.4237 143.538 15.4584 141.437 14.107V17.5672C143.127 18.7107 146.036 19.676 149.284 19.676C153.898 19.676 156.866 17.879 156.866 14.6565C156.896 12.221 155.309 10.7508 151.664 10.3647Z" fill="#2F2F2F"/>
<path d="M135.28 4.21582V11.9084C135.28 14.8191 133.531 16.4229 130.901 16.4229C128.256 16.4229 126.522 14.8488 126.522 11.8638V4.21582H122.951V11.5223C122.951 16.9724 126.316 19.6752 130.96 19.6752C135.412 19.6752 138.865 17.0912 138.865 11.7005V4.21582H135.28Z" fill="#2F2F2F"/>
<path d="M33.5477 11.6428C33.5477 12.3705 33.1803 12.4893 32.2693 12.4893C31.2994 12.4893 31.1231 12.3259 31.0202 11.5834C30.8292 9.69737 29.5655 8.09351 27.4494 7.91531C26.7735 7.8559 26.6119 7.60345 26.6119 6.75697C26.6119 5.96989 26.7294 5.59863 27.3319 5.59863C31.0055 5.61348 33.5477 8.59843 33.5477 11.6428ZM38.8965 11.6428C38.8965 5.98475 35.1053 0 26.3473 0H8.94899C8.59632 0 8.3759 0.178206 8.3759 0.504917C8.3759 0.683122 8.50815 0.846478 8.62571 0.935581C9.25757 1.4405 10.198 2.00482 11.4324 2.62854C12.6373 3.23741 13.5778 3.63837 14.5182 4.02448C14.915 4.18784 15.0619 4.36604 15.0619 4.5888C15.0619 4.90066 14.8415 5.09371 14.4154 5.09371H0.602477C0.191029 5.09371 0 5.36102 0 5.62833C0 5.85109 0.0734722 6.04415 0.264501 6.2372C1.38129 7.42524 3.17402 8.85089 5.77496 10.4993C8.05262 11.9398 10.874 13.4991 13.1222 14.5832C13.5043 14.7614 13.6219 14.9693 13.6219 15.192C13.6072 15.4445 13.4161 15.6524 12.9753 15.6524H6.64194C6.28927 15.6524 6.08355 15.8455 6.08355 16.1425C6.08355 16.3058 6.2158 16.5137 6.39213 16.6771C7.8322 17.9988 10.1392 19.4393 13.2104 20.761C17.3102 22.5282 21.4688 23.5826 26.1416 23.5826C35.0024 23.5826 38.8965 16.885 38.8965 11.6428ZM27.3319 20.0036C22.806 20.0036 19.0148 16.2761 19.0148 11.6279C19.0148 7.05398 22.7913 3.37106 27.3319 3.37106C31.9754 3.37106 35.6196 7.03913 35.6196 11.6279C35.6049 16.2761 31.9754 20.0036 27.3319 20.0036Z" fill="#2F2F2F"/>
</svg>
