<svg width="149" height="41" viewBox="0 0 149 41" fill="none" xmlns="http://www.w3.org/2000/svg">
<path d="M23.1308 21.958C20.783 21.958 18.8496 23.8914 18.8496 26.2392C18.8496 28.5869 20.783 30.5203 23.1308 30.5203C25.4785 30.5203 27.4119 28.5869 27.4119 26.2392C27.3429 23.8914 25.4785 21.958 23.1308 21.958ZM23.2689 25.963C22.9236 25.7558 23.6832 22.9938 23.6832 22.9938C23.6832 22.9938 25.0642 23.2009 25.6856 24.4438C25.6856 24.5129 23.6141 26.2392 23.2689 25.963Z" fill="#2F2F2F"/>
<path d="M18.6455 24.8573C18.9217 23.8906 19.5431 23.062 20.3027 22.4405C20.0955 22.3024 19.8884 22.2334 19.6122 22.2334C18.7836 22.2334 18.1621 22.9239 18.1621 23.6835C18.1621 24.2359 18.3002 24.5811 18.6455 24.8573Z" fill="#2F2F2F"/>
<path d="M23.1298 30.8663C22.6464 30.8663 22.163 30.7973 21.6797 30.6592C21.7487 31.4187 22.3702 31.9711 23.1298 31.9711C23.8893 31.9711 24.5108 31.4187 24.5798 30.6592C24.0965 30.7973 23.6131 30.8663 23.1298 30.8663Z" fill="#2F2F2F"/>
<path d="M27.5517 24.8586C27.8279 24.5824 28.0351 24.1681 28.0351 23.7538C28.0351 22.9252 27.3446 22.3037 26.585 22.3037C26.3088 22.3037 26.1017 22.3728 25.8945 22.4418C26.7231 23.0633 27.2755 23.8919 27.5517 24.8586Z" fill="#2F2F2F"/>
<path d="M27.8961 23.4085L27.3438 22.718L28.2414 22.3037L28.5176 22.649L27.8961 23.4085Z" fill="#2F2F2F"/>
<path d="M18.7813 22.5799L18.2289 23.4085L17.6074 22.649L17.8146 22.3037L18.7813 22.5799Z" fill="#2F2F2F"/>
<path d="M22.5801 31.833H23.5468L23.2706 32.7997H22.8563L22.5801 31.833Z" fill="#2F2F2F"/>
<path d="M27.7578 26.9297C27.5506 28.3107 26.722 29.4846 25.6172 30.1751C27.7578 32.1776 30.9341 34.6634 33.7652 36.5968C35.3533 34.9396 36.5963 32.9371 37.2868 30.7275C34.2485 29.2774 30.5888 27.7583 27.7578 26.9297Z" fill="#2F2F2F"/>
<path d="M41.4313 32.867C41.017 32.6598 40.6027 32.3836 40.1194 32.1074C39.2908 34.4551 38.0478 36.5267 36.3906 38.322C36.874 38.6672 37.3573 38.9435 37.7716 39.1506C42.0528 41.6364 44.9529 41.4293 45.9196 39.634C47.1626 37.5624 46.403 35.7671 41.4313 32.867Z" fill="#2F2F2F"/>
<path d="M20.4359 30.1061C19.3311 29.3466 18.5716 28.1037 18.4335 26.7227C15.1881 27.6894 10.8379 29.5537 7.52344 31.211C8.283 33.4896 9.52592 35.6302 11.1141 37.3565C14.1523 35.285 17.9501 32.4539 20.4359 30.1061Z" fill="#2F2F2F"/>
<path d="M6.00682 31.9707C5.59251 32.1779 5.17821 32.4541 4.83296 32.6612C0.551808 35.147 -0.691107 37.771 0.344655 39.4972C1.38042 41.2235 4.2115 41.4997 8.49265 39.0139C8.83791 38.8067 9.25221 38.5305 9.73557 38.2543C8.07835 36.459 6.76638 34.3184 6.00682 31.9707Z" fill="#2F2F2F"/>
<path d="M23.0626 8.21705C24.3746 8.21705 25.6175 8.35515 26.8604 8.63135C26.8604 8.14799 26.8604 7.73369 26.8604 7.31939C26.8604 2.34773 25.2032 0 23.2007 0C21.1982 0 19.541 2.34773 19.541 7.31939C19.541 7.73369 19.541 8.148 19.541 8.5623C20.7149 8.2861 21.8887 8.21705 23.0626 8.21705Z" fill="#2F2F2F"/>
<path d="M23.0619 8.97754C21.8881 8.97754 20.7142 9.11564 19.6094 9.32279C19.6094 9.80615 19.6784 10.2895 19.6784 10.8419C20.7832 10.8419 22.3024 10.911 23.4762 11.3253C22.2333 11.6015 20.8523 11.9467 19.7475 12.292C20.0237 15.5374 20.507 19.128 21.1285 21.89C21.6809 21.6138 22.3024 21.4757 22.9929 21.4757C23.7524 21.4757 24.512 21.6829 25.1334 21.9591C25.962 18.3685 26.5835 13.1206 26.7216 9.39185C25.6168 9.11564 24.3739 8.97754 23.0619 8.97754Z" fill="#2F2F2F"/>
<path d="M34.3848 37.0117C34.3848 37.0117 36.4563 35.4926 37.5611 33.6973C36.4563 35.9069 35.6277 37.8403 35.6277 37.8403L34.3848 37.0117Z" fill="#2F2F2F"/>
<path d="M44.6758 17.2626H49.9236V31.9014H57.3121V17.2626H62.5599V11.3242H44.6758V17.2626Z" fill="#2F2F2F"/>
<path d="M130.713 11.3242V17.2626H135.961V31.9014H143.349V17.2626H148.597V11.3242H130.713Z" fill="#2F2F2F"/>
<path d="M90.8696 11.3242H83.4121V31.9014H90.8696V11.3242Z" fill="#2F2F2F"/>
<path d="M122.288 23.8915H127.881V19.7484H122.288V17.1935H128.779V11.3242H115.59V31.9014H129.469V26.3082H122.288V23.8915Z" fill="#2F2F2F"/>
<path d="M106.337 18.2293L106.544 22.0961L100.192 11.3242H92.9414V31.9014H100.054V24.5129L99.7774 21.2675L106.13 31.9014H113.449V11.3242H106.337V18.2293Z" fill="#2F2F2F"/>
<path d="M79.0615 23.8227C80.5806 22.4417 81.3401 20.7845 81.3401 18.782C81.3401 16.1581 80.6496 14.2937 79.1996 13.1198C77.7495 11.946 75.6089 11.3936 72.7778 11.3936H64.1465V31.9707H70.9825V28.7253L70.7063 25.4799L71.3968 26.6538L74.5732 31.9707H81.8925L77.7495 24.7894C78.2329 24.5132 78.6472 24.168 79.0615 23.8227ZM73.2612 21.0607H70.9135V16.5724H73.1231C74.5732 16.5724 75.3327 17.3319 75.3327 18.851C75.3327 20.3011 74.6422 21.0607 73.2612 21.0607Z" fill="#2F2F2F"/>
</svg>
