<svg width="94" height="46" viewBox="0 0 94 46" fill="none" xmlns="http://www.w3.org/2000/svg">
<path d="M81.1922 35.6832L80.639 34.289L80.639 34.289L81.1922 35.6832ZM93.8209 31.8134C94.1493 31.0529 93.799 30.1701 93.0385 29.8417L80.6448 24.4894C79.8843 24.1609 79.0015 24.5112 78.6731 25.2718C78.3446 26.0323 78.6949 26.9151 79.4554 27.2435L90.472 32.0011L85.7144 43.0177C85.386 43.7783 85.7363 44.661 86.4968 44.9895C87.2573 45.3179 88.1401 44.9677 88.4686 44.2071L93.8209 31.8134ZM81.7454 37.0775L92.997 32.613L91.8906 29.8245L80.639 34.289L81.7454 37.0775ZM0.607699 2.0376C13.3373 34.1192 49.6638 49.8071 81.7454 37.0775L80.639 34.289C50.0974 46.4075 15.5147 31.4727 3.39621 0.931152L0.607699 2.0376Z" fill="#F9D403"/>
</svg>
